<?xml version="1.0" standalone="no"?>
<!DOCTYPE svg PUBLIC "-//W3C//DTD SVG 20010904//EN"
 "http://www.w3.org/TR/2001/REC-SVG-20010904/DTD/svg10.dtd">
<svg version="1.0" xmlns="http://www.w3.org/2000/svg"
 width="5000.000000pt" height="3334.000000pt" viewBox="0 0 5000.000000 3334.000000"
 preserveAspectRatio="xMidYMid meet">

<g transform="translate(0.000000,3334.000000) scale(0.100000,-0.100000)"
fill="#000000" stroke="none">
<path d="M7216 24209 c-321 -37 -573 -186 -738 -434 -327 -496 -415 -1355
-267 -2625 75 -649 227 -1439 434 -2255 253 -999 490 -1666 871 -2444 105
-216 126 -252 141 -246 98 41 153 41 239 1 60 -28 182 -138 200 -182 23 -55
-15 -158 -111 -298 -28 -42 -44 -74 -40 -84 3 -9 48 -93 99 -186 51 -94 126
-233 166 -309 l73 -138 -41 -39 c-126 -122 -167 -245 -182 -547 -5 -114 -16
-217 -25 -255 -34 -132 -108 -238 -204 -295 -24 -14 -97 -45 -163 -69 -137
-50 -184 -75 -259 -140 -30 -25 -84 -61 -121 -80 -118 -60 -157 -65 -543 -74
-194 -5 -370 -13 -395 -19 -307 -77 -494 -225 -626 -496 -162 -333 -165 -708
-9 -1031 193 -400 660 -686 1120 -687 204 -1 348 46 467 153 60 53 156 190
224 317 21 40 41 70 44 65 4 -4 46 -106 95 -227 73 -183 208 -506 368 -882
l30 -71 -50 -79 c-99 -155 -170 -319 -209 -488 -16 -66 -19 -120 -19 -310 0
-126 6 -279 13 -340 45 -387 141 -928 248 -1382 l26 -111 56 -6 c234 -23 740
-13 1034 20 235 27 194 48 310 -161 144 -260 349 -618 359 -630 5 -5 9 41 9
115 l0 123 -57 101 c-80 143 -239 430 -278 501 l-33 60 -5 345 c-7 455 -37
823 -117 1463 -61 481 -71 592 -77 850 -5 231 -8 257 -22 251 -95 -40 -299
-69 -424 -59 -117 9 -257 32 -364 59 l-92 24 -59 -57 c-32 -31 -81 -82 -109
-113 l-50 -56 -118 276 c-65 152 -178 427 -252 610 l-133 334 50 69 c148 198
324 296 635 354 50 9 111 28 138 43 99 53 185 181 228 338 30 112 37 380 15
554 -24 182 -42 258 -97 420 -72 213 -65 289 37 399 68 74 136 110 354 187 96
34 182 64 192 68 18 8 23 -5 38 -124 30 -237 -5 -432 -90 -503 -51 -43 -104
-53 -179 -33 -35 9 -65 15 -66 14 -5 -7 43 -520 49 -526 4 -4 71 -10 149 -14
78 -4 158 -10 177 -13 67 -12 289 102 448 230 46 37 90 78 98 91 14 21 15 470
9 4446 -6 3480 -5 4443 5 4518 24 185 119 381 239 493 28 26 51 50 51 52 0 2
-73 59 -162 126 -786 592 -1646 976 -2348 1049 -109 11 -304 11 -404 -1z m656
-2246 c21 -26 166 -978 151 -1001 -5 -9 -19 -18 -29 -20 -14 -2 -788 288
-1001 375 -17 7 -26 40 -16 58 12 21 844 603 864 604 9 1 23 -7 31 -16z m1275
-7277 c41 -80 34 -146 -22 -195 -78 -68 -209 -79 -470 -42 -222 33 -303 15
-354 -79 -14 -24 -26 -39 -29 -32 -9 27 42 92 92 117 64 32 151 33 343 4 178
-27 276 -22 357 16 62 29 96 70 96 116 0 14 -13 53 -30 85 -16 32 -30 61 -30
63 0 11 34 -27 47 -53z m-673 -1160 c124 -409 126 -713 5 -850 -62 -71 -123
-92 -309 -106 -253 -20 -363 -63 -496 -195 -109 -108 -199 -270 -244 -437 -7
-27 -17 -48 -21 -48 -12 0 -12 -2 16 90 96 302 269 499 500 570 42 12 134 26
232 35 121 11 176 20 213 36 64 28 133 103 155 169 52 156 29 403 -66 726 -42
141 -44 153 -30 139 5 -6 26 -63 45 -129z m-1799 -201 c0 -5 -22 -14 -50 -19
-414 -71 -678 -272 -767 -581 -19 -68 -23 -102 -22 -230 0 -102 6 -174 18
-224 9 -42 13 -78 8 -83 -42 -42 -79 302 -51 472 39 245 191 441 434 563 150
75 430 141 430 102z"/>
<path d="M7458 21612 c-186 -131 -337 -239 -338 -242 0 -8 800 -314 805 -308
3 3 -22 179 -55 392 -33 212 -60 389 -60 391 0 12 -36 -12 -352 -233z"/>
<path d="M43890 22756 c-583 -75 -1250 -328 -1910 -725 -540 -326 -997 -685
-1435 -1132 -438 -446 -765 -894 -1014 -1389 -125 -247 -273 -623 -254 -640 5
-4 145 -26 313 -49 168 -24 314 -45 325 -47 14 -3 25 4 37 26 28 50 81 38 90
-20 l3 -24 1630 -232 c1269 -181 1648 -238 1710 -258 166 -53 336 -186 433
-336 90 -139 139 -323 129 -485 -4 -58 -154 -845 -421 -2214 -229 -1168 -416
-2128 -416 -2135 1 -6 39 66 86 159 110 217 171 330 419 765 547 962 797 1498
1067 2290 199 588 427 1457 577 2206 407 2033 332 3395 -218 3945 -150 150
-304 229 -551 284 -103 23 -457 29 -600 11z m154 -1731 c407 -28 654 -49 662
-56 8 -6 14 -21 13 -33 0 -11 -177 -284 -392 -606 -411 -613 -417 -621 -451
-568 -23 35 -516 1245 -516 1266 0 17 17 42 30 42 3 0 297 -20 654 -45z
m-3797 -567 c6 -7 13 -49 17 -94 5 -72 4 -83 -13 -98 -25 -23 -59 -13 -72 21
-13 35 -11 157 3 171 16 16 53 15 65 0z m4 -408 c16 -9 19 -22 19 -93 0 -97
-11 -120 -55 -115 l-30 3 -3 90 c-3 82 -1 92 19 108 25 20 25 20 50 7z m-21
-425 c10 -13 11 -32 1 -98 -11 -80 -25 -107 -57 -107 -18 0 -44 29 -44 48 0
39 22 147 32 159 14 18 53 16 68 -2z m-76 -417 c12 -20 -7 -130 -30 -165 -17
-27 -56 -30 -74 -8 -11 13 -11 27 0 73 21 98 36 124 66 120 15 -2 32 -11 38
-20z"/>
<path d="M43482 20957 c7 -31 434 -1067 439 -1067 3 0 157 227 342 505 288
431 334 505 315 505 -13 0 -248 16 -523 35 -571 40 -578 40 -573 22z"/>
<path d="M20430 22750 c0 -5 7 -10 16 -10 8 0 12 5 9 10 -3 6 -10 10 -16 10
-5 0 -9 -4 -9 -10z"/>
<path d="M20480 22741 c0 -14 -5 -18 -19 -14 -13 3 -20 -2 -24 -19 -4 -13 -7
-235 -7 -494 0 -421 2 -473 16 -478 9 -3 258 -6 555 -6 l539 0 0 -1000 0
-1000 1023 -2 1022 -3 0 -930 0 -930 -99 -50 -99 -50 -924 -3 -923 -2 0 -995
0 -995 93 0 92 0 -85 -80 c-47 -43 -88 -79 -92 -80 -5 0 -8 34 -8 75 l0 75
-1020 0 -1020 0 0 -975 0 -975 -1020 0 -1020 0 0 975 0 975 -402 2 -403 3 -16
50 c-16 50 -16 50 11 90 42 61 81 143 105 218 18 55 20 78 14 115 -17 91 -145
316 -224 392 -34 32 -41 35 -98 35 -102 -1 -149 -52 -127 -136 10 -36 8 -42
-40 -115 -38 -59 -50 -86 -50 -115 0 -45 64 -213 116 -306 35 -63 43 -123 28
-202 l-6 -31 -474 0 -474 0 0 -975 0 -975 -144 0 -144 0 -117 315 c-65 174
-116 317 -114 318 151 93 169 130 150 312 -19 182 -78 254 -209 255 -88 0
-141 -15 -257 -70 -117 -57 -177 -107 -275 -230 -86 -108 -127 -134 -241 -155
-319 -59 -350 -143 -173 -481 62 -120 73 -163 50 -199 -9 -13 -16 -33 -16 -45
0 -20 -5 -20 -275 -20 l-275 0 -1 -27 0 -28 -12 24 c-9 19 -9 25 1 29 9 3 12
201 12 908 0 872 -1 904 -18 904 -11 0 -27 9 -37 20 -15 17 -16 24 -7 45 7 14
23 30 37 35 14 5 25 16 25 25 0 13 -22 15 -144 15 l-145 0 -3 33 c-2 23 12 62
49 137 68 140 105 249 97 290 -4 17 -28 64 -53 103 -43 67 -46 75 -37 110 19
76 -26 128 -116 134 -41 3 -60 -1 -85 -16 -70 -44 -236 -325 -249 -422 -4 -32
-1 -63 11 -100 22 -67 79 -184 111 -226 13 -17 24 -34 24 -37 0 -3 -340 -6
-755 -6 l-755 0 0 -975 0 -975 734 0 734 0 22 -92 c30 -121 78 -289 85 -296 2
-3 31 19 62 49 32 30 79 69 104 86 96 66 315 163 367 163 35 0 68 -41 102
-127 62 -159 178 -333 287 -433 96 -88 184 -120 330 -120 l93 0 0 -51 c0 -44
4 -55 33 -84 66 -66 316 -104 497 -74 71 11 101 26 126 64 16 25 21 88 9 124
-5 18 4 19 202 24 142 3 222 9 253 18 l45 15 3 367 2 367 330 0 329 0 -18 -52
c-11 -29 -28 -76 -40 -105 l-20 -52 67 -39 c190 -110 422 -242 426 -242 7 0
74 212 116 368 l34 122 408 0 408 0 0 -980 0 -980 -948 0 -947 0 -39 -387
c-20 -214 -39 -401 -42 -418 -2 -16 -17 -167 -34 -334 -25 -256 -30 -346 -30
-582 l0 -279 -28 0 -29 0 -11 -131 c-13 -144 -13 -145 -87 -178 -205 -93 -760
-89 -1545 10 -129 16 -250 32 -267 35 l-33 6 0 129 c0 122 -1 129 -20 129 -20
0 -20 7 -20 1000 l0 1000 44 0 43 0 7 46 c3 26 6 95 6 155 l0 108 -50 78 -50
78 0 -232 0 -233 -1022 -2 -1023 -3 -3 -997 -2 -998 1026 0 1026 0 -4 -183 -4
-182 -68 -160 c-184 -437 -261 -705 -346 -1200 -17 -99 -33 -192 -36 -208 l-6
-27 -704 0 -705 0 -39 31 c-28 22 -46 30 -69 28 -40 -5 -79 33 -178 171 -190
263 -237 310 -313 310 -64 0 -61 2 -594 -460 -169 -146 -327 -292 -337 -312
-8 -14 -7 -28 1 -49 19 -44 69 -54 151 -30 428 123 854 243 867 243 9 1 61
-27 115 -62 69 -45 96 -68 93 -79 -3 -9 -8 -37 -11 -63 -9 -58 20 -127 88
-210 l47 -58 0 -730 0 -730 1025 0 1025 0 0 391 0 391 46 51 c102 114 262 508
396 977 l53 185 166 3 165 2 33 -207 c99 -630 307 -1522 533 -2288 50 -170
156 -519 165 -543 4 -10 -387 -12 -2058 -10 l-2064 3 -77 26 c-119 41 -204 94
-294 183 -94 94 -150 186 -196 317 l-33 94 -3 738 c-3 684 -4 737 -20 737 -26
0 -149 50 -162 66 -7 8 -25 14 -41 14 -15 0 -31 5 -34 10 -3 6 -19 10 -34 10
-16 0 -34 7 -41 15 -22 26 -40 18 -40 -19 0 -28 4 -35 23 -39 l22 -4 -23 -2
-23 -1 3 -967 3 -968 33 -94 c46 -133 102 -223 196 -316 92 -91 176 -144 291
-182 l80 -27 597 -6 598 -5 87 -109 c49 -60 95 -114 104 -119 23 -14 66 -1 80
24 16 31 5 59 -56 135 l-55 69 1642 3 c1409 2 1644 0 1657 -12 9 -8 32 -16 51
-18 34 -3 35 -4 38 -52 2 -28 -6 -120 -18 -205 -30 -215 -31 -311 -4 -348 45
-61 72 -70 221 -77 303 -15 700 -26 925 -26 256 0 268 2 268 54 0 51 -33 70
-437 256 -677 311 -620 282 -632 327 -6 22 -14 53 -17 71 l-6 32 396 0 c366 0
439 5 359 24 -40 10 -83 30 -83 38 0 5 -9 8 -21 8 -11 0 -29 5 -40 10 -24 13
-25 2 -1 -16 16 -13 16 -13 0 -14 -11 0 -18 -8 -18 -20 0 -21 -15 -27 -25 -10
-3 6 -16 10 -28 10 -12 0 -30 12 -40 25 -15 22 -16 25 -2 25 8 0 15 9 15 20 0
11 -7 20 -15 20 -8 0 -23 9 -34 21 -11 12 -25 18 -31 14 -7 -4 -25 2 -41 14
-15 11 -37 21 -49 21 -11 0 -30 6 -41 13 -17 9 -23 9 -26 0 -3 -7 -14 -13 -26
-12 l-22 0 23 11 c12 6 22 14 22 18 0 4 -10 10 -22 13 -13 2 -31 8 -40 12 -15
6 -18 2 -18 -23 0 -17 6 -33 13 -36 6 -4 -3 -4 -22 -1 -18 3 -42 5 -52 5 -16
0 -19 8 -19 50 0 47 -2 50 -25 50 -14 0 -25 -4 -25 -10 0 -15 -26 -12 -39 4
-10 12 -8 14 11 9 l23 -5 -22 19 c-15 12 -21 26 -19 40 4 16 1 20 -10 16 -9
-3 -12 -13 -9 -24 5 -14 2 -17 -8 -13 -36 14 -144 783 -192 1374 -38 470 -85
1400 -85 1678 l0 82 110 0 110 0 0 -1000 0 -1000 653 -1 c358 0 817 -1 1019
-2 l368 -2 0 1003 0 1002 1020 0 1020 0 0 -1005 0 -1005 476 0 c410 0 475 -2
471 -14 -4 -10 2 -16 16 -18 22 -3 22 -6 22 -176 l1 -172 -3 170 c-3 161 -5
170 -23 170 -29 0 -32 -27 -28 -223 l3 -174 -130 -6 c-215 -10 -337 -58 -460
-182 -78 -78 -122 -153 -157 -265 -20 -66 -23 -94 -22 -230 1 -137 3 -163 26
-230 67 -203 244 -366 448 -414 58 -14 578 -16 4695 -16 3808 0 4640 3 4686
14 l57 13 6 -63 c28 -276 242 -497 538 -558 66 -14 168 -16 680 -16 332 0 599
4 593 8 -15 11 -35 50 -35 67 0 10 -7 15 -17 13 -14 -2 -17 3 -15 21 1 13 -9
38 -23 57 -14 18 -25 37 -25 43 0 6 -7 8 -17 4 -13 -5 -15 -2 -11 15 4 12 2
22 -3 22 -5 0 -14 11 -19 25 -5 14 -14 25 -20 25 -5 0 -10 7 -10 16 0 42 -16
43 -446 44 -464 0 -497 4 -637 77 -95 50 -203 156 -245 243 -61 124 -61 125
-62 1004 -1 759 -2 800 -19 815 -10 9 -22 27 -26 41 -4 14 -24 45 -44 69 -20
24 -35 46 -34 47 1 2 -1 12 -4 23 -3 13 -10 18 -21 14 -12 -5 -14 -1 -10 15 4
12 2 22 -3 22 -5 0 -14 11 -19 25 -5 14 -14 25 -19 25 -4 0 -12 15 -17 33 -6
20 -10 -145 -12 -434 l-2 -466 -58 13 c-42 10 -151 14 -419 14 -257 0 -363 3
-363 11 0 6 22 31 50 56 33 30 62 69 87 120 34 69 38 85 41 176 7 166 -20 249
-114 347 l-54 57 0 1406 0 1406 50 60 c28 34 75 80 106 103 l55 41 419 -96
420 -97 47 34 c136 96 242 126 472 135 l175 6 72 220 c193 585 345 1182 454
1785 21 118 39 211 39 205 4 -42 232 -2139 236 -2172 l6 -43 125 0 125 0 -6
33 c-3 17 -88 801 -190 1741 -170 1569 -185 1724 -185 1890 0 562 -72 1212
-186 1696 -26 110 -38 199 -78 597 -18 171 -30 249 -41 267 -20 30 -64 49
-117 50 l-39 1 -59 143 c-57 140 -58 142 -28 117 34 -28 80 -33 131 -12 49 21
58 38 72 145 20 156 28 164 196 187 162 22 172 17 228 -120 46 -111 60 -125
134 -125 51 0 62 4 88 29 21 21 29 39 29 65 0 48 -411 982 -446 1014 -28 25
-67 28 -179 12 -86 -12 -117 -24 -134 -52 -14 -23 -151 -987 -151 -1068 l0
-45 -49 105 c-254 554 -604 1095 -1012 1570 -154 179 -491 519 -661 669 l-118
103 -2 1976 -3 1977 -23 75 c-68 218 -198 382 -374 471 -126 64 201 59 -4020
59 -3778 0 -3848 0 -3848 -19z m-13 -763 c-1 -134 -2 -25 -2 242 0 267 1 376
2 243 2 -134 2 -352 0 -485z m20 0 c-1 -134 -2 -25 -2 242 0 267 1 376 2 243
2 -134 2 -352 0 -485z m5137 -279 c3 -17 6 -467 6 -1000 l0 -969 1020 0 1020
0 0 -381 0 -381 -47 28 c-186 109 -530 285 -680 348 -122 51 -260 29 -344 -56
-19 -19 -124 -194 -233 -389 -109 -195 -200 -355 -201 -357 -3 -4 -317 198
-337 217 -9 9 -58 87 -107 174 l-91 158 0 314 0 315 -182 2 -183 3 -102 175
c-57 96 -108 190 -115 208 -12 31 -14 32 -71 32 -66 0 -107 -17 -126 -53 -7
-13 -23 -100 -34 -193 l-22 -169 -602 -3 -603 -2 0 1005 0 1005 1014 0 1014 0
6 -31z m5380 -5173 c85 -209 87 -226 33 -272 -55 -46 -140 -19 -153 50 -3 18
4 114 15 214 12 100 21 188 21 194 0 20 7 6 84 -186z m-9267 -2 c26 -5 41 -49
26 -73 -9 -13 -28 -16 -97 -14 -93 1 -116 11 -116 49 0 42 24 54 98 48 37 -3
77 -7 89 -10z m436 -46 c22 -26 22 -41 -3 -63 -17 -15 -30 -17 -95 -11 -42 4
-82 9 -90 12 -23 9 -28 43 -10 70 15 24 18 24 98 18 65 -5 86 -10 100 -26z
m276 -49 c-49 -43 -63 -44 -67 -7 -4 35 26 55 74 50 l36 -4 -43 -39z m-9315
-852 c8 -21 6 -31 -7 -44 -21 -21 -23 -18 -30 35 -4 36 -3 43 11 40 9 -2 21
-16 26 -31z m-391 -148 c23 -37 1 -65 -79 -99 -79 -35 -95 -34 -118 3 -17 26
3 48 74 84 69 34 107 38 123 12z m-373 -179 c6 -12 8 -30 5 -41 -7 -21 -131
-89 -163 -89 -41 0 -57 54 -24 82 30 27 116 67 144 68 18 0 31 -7 38 -20z
m-376 -186 c35 -35 18 -61 -75 -113 -67 -37 -84 -38 -104 -7 -22 34 -11 52 64
96 73 43 92 47 115 24z m-359 -214 c29 -32 13 -61 -64 -108 -49 -30 -77 -42
-91 -37 -21 7 -36 45 -27 68 5 15 135 97 153 97 6 0 19 -9 29 -20z m3320 -32
c19 -66 19 -151 0 -188 -15 -29 -71 -67 -83 -56 -3 3 12 21 32 39 47 40 57 95
32 180 -19 64 -20 77 -6 77 5 0 16 -23 25 -52z m5048 -1150 c6 -158 26 -250
80 -378 39 -89 671 -1208 733 -1296 24 -34 64 -80 90 -103 l47 -41 -727 0
-726 0 0 -1000 0 -1000 1020 0 1020 0 0 935 0 935 163 0 c244 0 363 24 481 95
l58 35 674 0 674 0 0 330 0 330 585 0 c431 0 591 -3 610 -12 52 -23 73 -120
37 -164 -9 -12 -84 -68 -166 -125 -83 -57 -227 -161 -320 -231 l-171 -128
-287 0 -288 0 0 -239 0 -239 -167 -155 c-415 -384 -805 -811 -1111 -1214
l-115 -153 -328 0 -329 0 0 -562 0 -561 -54 -127 c-69 -161 -154 -399 -204
-572 l-38 -133 -872 -3 -872 -2 0 980 0 980 -1020 0 -1020 0 0 -980 0 -980
-1020 0 -1020 0 0 980 0 980 1020 0 1020 0 0 1000 0 1000 1020 0 1020 0 0 980
0 980 249 0 248 0 6 -142z m-10083 -6658 c0 -5 -6 -10 -14 -10 -8 0 -18 5 -21
10 -3 6 3 10 14 10 12 0 21 -4 21 -10z m110 -70 c-19 -13 -30 -13 -30 0 0 6
10 10 23 10 18 0 19 -2 7 -10z m90 -15 c7 -8 19 -15 26 -15 8 0 14 -5 14 -11
0 -7 -16 -8 -47 -3 -58 8 -59 9 -42 28 18 20 33 20 49 1z m10352 -1338 c2
-107 0 -147 -9 -147 -7 0 -10 13 -9 33 2 17 5 104 6 192 4 176 8 148 12 -78z
m-4972 -892 c0 13 20 -17 20 -30 0 -5 -4 -4 -9 4 -5 7 -13 11 -18 8 -5 -3 -10
4 -10 16 -2 17 0 19 7 7 5 -8 10 -10 10 -5z m260 -105 c0 -5 -4 -10 -10 -10
-5 0 -10 5 -10 10 0 6 5 10 10 10 6 0 10 -4 10 -10z m159 -56 c2 -2 2 -7 -1
-10 -9 -9 -78 7 -78 18 0 9 69 2 79 -8z m238 -70 c-3 -3 -12 -4 -19 -1 -8 3
-5 6 6 6 11 1 17 -2 13 -5z"/>
<path d="M13380 20730 l0 -1000 1020 0 1020 0 0 1000 0 1000 -1020 0 -1020 0
0 -1000z"/>
<path d="M17460 20730 l0 -1000 1020 0 1020 0 0 1000 0 1000 -1020 0 -1020 0
0 -1000z"/>
<path d="M36146 20995 c-120 -42 -206 -182 -206 -333 0 -81 22 -119 87 -154
74 -39 136 -50 279 -46 125 3 131 2 175 -24 55 -33 129 -111 129 -137 0 -11
-9 -58 -21 -106 l-20 -87 40 -68 c37 -61 90 -120 110 -120 4 0 13 18 20 39 6
22 24 53 40 70 26 28 35 31 89 31 47 0 67 -5 96 -25 l37 -25 25 25 c29 30 63
100 64 133 0 36 -25 86 -64 130 -27 30 -36 48 -36 75 0 20 5 39 11 43 20 12
49 88 49 130 0 82 -85 172 -184 194 -39 9 -60 7 -110 -6 -103 -28 -115 -28
-146 -5 -16 11 -42 21 -58 21 -34 0 -82 34 -82 58 -1 140 -175 240 -324 187z
m4 -89 c0 -2 -18 -33 -39 -69 -79 -129 -89 -217 -33 -268 16 -15 35 -28 42
-31 7 -2 11 -9 9 -16 -6 -18 -69 17 -91 52 -38 62 -6 206 68 303 21 28 44 43
44 29z"/>
<path d="M38910 20730 c-17 -51 -66 -110 -92 -110 -17 0 -20 -4 -14 -27 94
-434 85 -734 -33 -1038 -136 -352 -467 -603 -920 -695 -117 -24 -171 -25 -351
-6 -74 8 -224 20 -332 27 -175 11 -200 10 -230 -4 -90 -43 -213 -69 -343 -74
-148 -6 -217 6 -322 58 l-62 30 -148 -11 c-261 -19 -629 -71 -833 -118 -58
-14 -225 36 -383 115 -393 194 -605 544 -624 1033 -7 175 19 406 63 566 4 17
0 23 -20 28 -29 7 -66 54 -88 110 l-15 39 -55 -84 c-192 -292 -320 -583 -379
-859 -31 -142 -34 -458 -6 -593 103 -509 478 -962 1108 -1340 69 -41 177 -101
241 -133 l116 -58 7 -65 c4 -36 40 -236 81 -445 41 -208 74 -379 72 -380 -2
-1 -834 9 -1850 22 -2016 27 -1892 29 -1929 -32 -35 -58 -14 -147 43 -177 17
-9 452 -18 1763 -35 957 -13 1805 -25 1884 -26 l145 -3 76 -345 c90 -405 171
-732 235 -955 l46 -160 -20 -75 c-81 -305 -185 -1074 -300 -2225 -42 -414
-101 -1040 -101 -1072 0 -10 -11 11 -24 47 -28 80 -1582 3298 -1605 3324 -28
32 -72 49 -116 44 -80 -10 -85 -16 -263 -378 -776 -1580 -1249 -2682 -1358
-3160 -65 -285 7 -587 199 -842 171 -227 423 -344 665 -309 100 15 204 49 291
97 157 85 354 264 505 458 l68 87 43 -76 c118 -206 286 -372 458 -451 135 -61
320 -81 472 -49 90 19 213 80 292 145 105 87 229 267 290 422 14 38 28 67 29
65 2 -2 -5 -104 -16 -227 -27 -313 -70 -862 -70 -888 0 -44 120 -70 235 -52
103 16 123 26 134 69 20 74 150 709 387 1886 l243 1210 0 -180 c0 -158 -27
-3656 -29 -3662 0 -2 -147 -3 -327 -2 -300 0 -324 2 -282 15 l47 14 -5 67 c-9
156 -53 353 -92 420 -10 16 -10 16 -11 -4 0 -42 -25 -53 -120 -53 -87 0 -89 0
-113 31 l-25 32 -98 -33 c-200 -66 -384 -171 -525 -298 -74 -68 -155 -169
-145 -180 4 -4 175 -8 379 -10 l372 -3 -3 -164 -3 -163 73 -6 c40 -3 161 -10
268 -16 107 -6 240 -13 295 -16 55 -2 168 -9 250 -14 83 -5 151 -5 153 -1 1 4
17 31 35 58 91 142 227 243 399 295 69 21 93 22 495 26 l422 3 -16 52 c-41
140 -151 294 -286 402 -45 36 -85 65 -89 65 -4 0 -8 -9 -8 -21 0 -23 -18 -60
-34 -71 -6 -4 -45 -8 -87 -8 -97 0 -119 17 -119 90 0 28 -4 50 -8 50 -14 0
-154 -442 -160 -503 l-5 -57 -188 0 -189 0 0 198 c0 108 7 1016 15 2017 8
1001 15 1932 15 2069 0 137 2 247 5 245 6 -6 186 -1456 350 -2814 78 -643 130
-1042 137 -1046 25 -16 141 -31 245 -32 l108 -2 7 80 c43 471 62 1507 39 2192
-30 903 -104 1979 -195 2838 l-13 130 49 280 c194 1108 388 1963 493 2175 12
25 25 56 28 70 5 21 27 35 124 79 424 195 740 403 1012 666 462 447 631 943
515 1515 -51 250 -227 636 -405 882 l-26 37 -13 -39z"/>
<path d="M11330 18745 l0 -975 1025 0 1025 0 0 975 0 975 -1025 0 -1025 0 0
-975z"/>
<path d="M15418 18743 l-3 -978 -1017 -3 -1018 -2 0 -995 0 -995 168 0 167 0
0 33 c0 27 6 35 35 49 19 9 57 23 83 30 60 16 82 5 82 -43 0 -30 -4 -35 -45
-51 -43 -16 -14 -17 753 -17 l797 -1 0 203 0 203 -35 -4 c-41 -5 -65 11 -65
43 0 25 29 55 52 55 51 0 48 -45 48 756 l0 744 1020 0 1020 0 0 975 0 975
-1020 0 -1020 0 -2 -977z m-307 -2543 c22 -12 26 -62 7 -78 -7 -5 -47 -17 -88
-25 -66 -14 -78 -14 -97 -1 -24 15 -29 39 -14 63 5 8 40 22 78 32 82 21 89 22
114 9z m-401 -100 c49 -49 3 -88 -127 -107 -49 -7 -73 7 -73 42 0 31 19 44 97
65 87 23 80 23 103 0z m-402 -102 c7 -7 12 -25 12 -41 0 -23 -7 -31 -37 -43
-66 -28 -139 -39 -157 -25 -18 15 -22 66 -5 76 16 11 132 43 155 44 11 1 25
-4 32 -11z"/>
<path d="M19500 18745 l0 -975 1020 0 1020 0 0 975 0 975 -1020 0 -1020 0 0
-975z"/>
<path d="M17460 17150 l0 -611 58 7 c50 5 59 3 76 -15 16 -17 18 -27 10 -49
-8 -24 -16 -28 -77 -36 l-67 -9 0 -334 0 -333 1020 0 1020 0 0 374 c0 323 -2
375 -15 380 -9 3 -15 18 -15 34 0 16 7 35 15 42 13 11 15 88 15 586 l0 574
-1020 0 -1020 0 0 -610z m1380 -560 c47 -47 17 -78 -82 -86 -84 -7 -128 8
-128 44 0 36 18 47 87 53 37 3 76 7 86 7 9 1 26 -7 37 -18z m418 8 c19 -19 15
-66 -7 -78 -32 -17 -167 -13 -185 6 -21 21 -20 61 2 73 24 15 175 14 190 -1z
m-830 -20 c17 -17 15 -48 -5 -70 -13 -15 -31 -18 -98 -18 -50 0 -86 5 -93 12
-18 18 -15 65 6 77 24 15 175 14 190 -1z m-410 -48 c3 -24 -2 -38 -14 -47 -23
-17 -175 -18 -192 -1 -17 17 -15 48 5 70 14 16 29 18 107 16 l91 -3 3 -35z"/>
<path d="M42251 15872 c-6 -11 -6 -24 1 -36 5 -9 7 -21 3 -24 -4 -4 -10 -1
-12 6 -3 9 -12 7 -30 -8 -14 -11 -43 -23 -65 -26 -21 -4 -38 -9 -38 -13 0 -3
-19 -15 -41 -26 -50 -23 -57 -39 -33 -68 15 -17 15 -19 2 -8 -15 11 -18 10
-23 -11 -4 -20 -206 -1299 -835 -5289 -99 -630 -180 -1153 -180 -1162 0 -15
15 -17 119 -17 l119 0 6 28 c3 15 154 970 336 2122 181 1152 411 2613 511
3245 99 633 182 1174 182 1202 1 29 5 53 8 53 3 0 6 7 6 14 0 8 -5 14 -11 13
-6 -1 -10 4 -8 11 3 18 -6 15 -17 -6z m19 -22 c0 -5 -2 -10 -4 -10 -3 0 -8 5
-11 10 -3 6 -1 10 4 10 6 0 11 -4 11 -10z"/>
<path d="M42032 15764 c-2 -22 1 -23 18 -14 24 13 26 22 3 13 -10 -4 -14 -2
-9 5 3 6 3 13 -2 16 -4 2 -9 -7 -10 -20z"/>
<path d="M37690 15129 c0 -2 -32 -704 -70 -1559 l-69 -1555 420 -850 c231
-467 427 -860 435 -872 20 -32 88 -64 149 -70 96 -10 124 11 282 209 414 520
1043 1350 1363 1798 349 487 653 958 792 1227 134 259 166 377 147 554 -42
413 -380 793 -807 906 -86 23 -117 26 -272 27 -149 1 -191 -2 -280 -22 -270
-61 -560 -211 -840 -435 l-104 -84 -49 81 c-199 332 -504 556 -847 620 -76 14
-250 31 -250 25z"/>
<path d="M9815 12641 c-5 -10 -135 -116 -175 -144 -21 -14 -22 -23 -21 -119 2
-134 -1 -147 -120 -589 l-102 -377 57 -208 c86 -311 142 -494 198 -644 50
-135 142 -338 172 -382 15 -21 16 80 16 1225 0 772 -4 1247 -9 1247 -6 0 -12
-4 -16 -9z"/>
<path d="M43472 10783 c-19 -17 -22 -39 -36 -363 -19 -411 -19 -413 -51 -820
-25 -321 -28 -354 -31 -370 -1 -8 -3 -21 -3 -27 -1 -10 -157 -13 -746 -13
l-745 0 0 -164 0 -164 63 -6 c34 -3 159 -10 277 -16 118 -6 240 -13 270 -15
30 -2 118 -7 195 -10 77 -3 154 -8 170 -10 31 -4 376 -20 385 -18 3 1 4 -37 2
-84 -3 -62 0 -88 9 -94 10 -6 9 -12 -5 -28 -10 -11 -21 -20 -25 -19 -8 2 -35
-9 -97 -38 -148 -70 -246 -269 -217 -440 29 -169 135 -289 301 -340 10 -3 12
-322 12 -1575 0 -865 2 -1574 5 -1577 3 -3 11 2 18 11 10 15 12 14 13 -13 1
-24 -2 -28 -12 -19 -7 6 -17 8 -23 5 -5 -3 -16 12 -24 33 -22 54 -104 133
-174 168 -51 24 -69 28 -148 28 -82 0 -97 -3 -156 -32 -81 -40 -140 -102 -182
-191 -30 -63 -32 -74 -32 -182 0 -108 2 -119 32 -182 42 -89 101 -151 182
-191 60 -29 74 -32 156 -32 78 1 98 5 148 29 68 33 151 113 178 173 11 24 24
41 29 38 13 -8 13 -172 0 -180 -5 -3 -9 -23 -8 -44 0 -21 -2 -43 -6 -49 -3 -6
-1 -14 5 -18 8 -5 9 -3 4 6 -6 9 -4 11 4 5 19 -11 -44 -71 -107 -102 l-54 -26
-196 7 c-108 3 -357 13 -552 21 -416 17 -460 18 -441 6 7 -5 9 -11 5 -14 -5
-3 -8 -84 -6 -181 l3 -176 590 0 c662 0 683 2 824 69 106 51 194 118 251 194
98 130 118 195 139 452 3 39 8 81 11 95 11 60 384 4211 384 4273 0 278 -234
542 -530 599 -30 6 -59 14 -63 18 -5 4 1 126 12 271 12 145 24 298 26 339 3
41 7 102 10 135 2 33 7 112 10 175 3 63 8 142 10 175 2 33 7 155 11 271 l7
211 -24 17 c-29 20 -32 20 -57 -1z m-255 -5385 c-1 -431 -2 -79 -2 782 0 861
1 1213 2 783 2 -431 2 -1135 0 -1565z m17 -869 c-3 -5 -11 -9 -17 -8 -8 0 -8
2 1 6 10 4 10 8 0 21 -12 15 -11 16 4 3 10 -7 15 -17 12 -22z m6 -29 c-12 -22
-21 -26 -17 -7 2 10 17 26 25 27 1 0 -2 -9 -8 -20z m-4 -241 c0 -15 -4 -25 -9
-22 -4 2 -5 9 -2 14 4 5 2 9 -3 9 -5 0 -9 6 -9 13 0 8 6 14 12 14 7 0 12 -12
11 -28z m4 -246 c0 -15 -2 -16 -10 -3 -8 12 -10 12 -10 1 0 -8 -3 -12 -6 -8
-8 7 4 27 17 27 5 0 9 -8 9 -17z m-10 -38 c0 -8 -2 -15 -4 -15 -2 0 -6 7 -10
15 -3 8 -1 15 4 15 6 0 10 -7 10 -15z"/>
<path d="M33672 10681 c-9 -5 -27 -83 -47 -207 -70 -410 -166 -790 -288 -1133
l-54 -151 407 0 407 0 -54 178 c-99 328 -203 782 -264 1155 -12 78 -29 145
-36 153 -16 16 -51 18 -71 5z"/>
<path d="M43204 8688 c1 -70 -2 -88 -14 -92 -11 -3 -10 -4 3 -5 12 -1 16 -5
11 -13 -5 -9 -2 -8 9 1 12 9 14 17 8 25 -6 7 -12 48 -14 91 l-3 80 0 -87z"/>
<path d="M30369 8616 c-124 -35 -257 -145 -313 -258 -43 -88 -60 -195 -47
-286 60 -407 545 -573 837 -287 271 265 152 721 -215 829 -65 19 -196 20 -262
2z"/>
<path d="M33219 8616 c-280 -78 -432 -377 -334 -656 74 -210 311 -347 537
-312 193 30 364 186 407 372 50 217 -53 447 -246 553 -100 54 -256 72 -364 43z"/>
<path d="M35093 8609 c-80 -25 -171 -107 -214 -190 -108 -214 -22 -480 186
-576 50 -23 74 -27 140 -28 69 0 89 5 147 32 151 71 239 230 225 408 -7 87
-27 144 -74 213 -45 66 -117 119 -194 143 -76 24 -137 23 -216 -2z"/>
<path d="M36991 8614 c-255 -68 -413 -342 -346 -599 99 -377 564 -501 833
-221 154 160 184 374 83 574 -59 115 -164 204 -288 242 -78 24 -202 26 -282 4z"/>
<path d="M39841 8614 c-82 -22 -150 -62 -216 -129 -99 -99 -145 -211 -145
-350 0 -191 102 -356 272 -440 425 -210 868 231 663 660 -58 122 -184 225
-319 261 -66 18 -186 17 -255 -2z"/>
<path d="M41739 8617 c-107 -30 -189 -104 -243 -216 -29 -62 -31 -73 -31 -182
0 -113 1 -116 38 -191 57 -116 141 -183 260 -208 159 -32 316 49 392 203 84
170 61 351 -61 486 -87 97 -235 142 -355 108z"/>
<path d="M31765 6960 c-94 -11 -174 -42 -248 -99 -206 -159 -252 -451 -105
-671 196 -294 637 -284 828 17 93 146 96 356 10 509 -35 60 -140 163 -196 192
-88 45 -187 63 -289 52z"/>
<path d="M36973 6955 c-217 -48 -360 -202 -395 -422 -31 -199 87 -419 272
-507 182 -87 379 -64 537 63 174 140 227 408 121 615 -27 52 -131 161 -184
192 -103 61 -242 84 -351 59z"/>
<path d="M39500 6941 c-113 -36 -232 -136 -284 -240 -118 -231 -43 -512 173
-650 220 -142 530 -76 674 141 100 153 112 329 33 493 -85 178 -246 276 -450
274 -58 0 -111 -6 -146 -18z"/>
<path d="M35734 6876 c-94 -30 -178 -110 -228 -216 -29 -60 -31 -73 -31 -175
0 -108 1 -113 38 -187 70 -142 189 -221 332 -221 145 1 262 79 332 221 l38 77
-6 125 c-4 109 -8 132 -31 175 -39 75 -99 138 -170 175 -55 30 -74 34 -148 37
-52 2 -101 -2 -126 -11z"/>
<path d="M29580 6371 c0 -6 4 -13 10 -16 6 -3 7 1 4 9 -7 18 -14 21 -14 7z"/>
<path d="M36220 6313 c5 -2 10 -9 10 -14 0 -6 -4 -7 -10 -4 -5 3 -10 3 -10 -2
-4 -125 -7 -456 -9 -909 l-1 -572 -35 -6 c-65 -13 -125 -45 -182 -98 -177
-168 -177 -448 1 -616 59 -56 124 -89 190 -99 40 -5 42 -7 62 -67 11 -33 24
-69 29 -80 8 -18 3 -18 -101 -12 -109 7 -416 19 -768 32 -142 5 -187 4 -182
-5 4 -6 12 -9 17 -6 5 4 9 1 9 -6 0 -6 -8 -9 -20 -6 -11 3 -20 1 -20 -4 0 -5
4 -9 10 -9 6 0 11 -67 12 -167 l3 -168 625 0 c623 0 625 0 698 23 l72 23 68
-23 c66 -23 72 -23 699 -26 l633 -3 -12 26 c-6 14 -15 25 -20 25 -4 0 -8 9 -8
20 0 11 -7 20 -15 20 -9 0 -15 10 -15 26 0 15 -5 24 -12 22 -10 -4 -68 92 -68
112 0 4 -15 25 -32 45 -18 20 -33 42 -33 48 0 9 -112 13 -440 17 l-440 5 -81
28 c-177 59 -315 188 -377 352 l-22 60 -3 843 c-1 497 -6 842 -12 842 -5 0
-12 9 -15 20 -3 11 -13 20 -21 20 -8 0 -14 7 -14 15 0 16 -2 20 -45 68 -14 16
-23 33 -20 38 4 5 -8 23 -25 41 -21 21 -28 33 -20 38 8 5 4 13 -12 26 -12 11
-23 30 -23 43 0 13 -6 25 -13 27 -7 1 -8 0 -2 -3z"/>
<path d="M5594 5801 c-31 -14 -347 -207 -373 -227 -2 -2 -1 -14 3 -27 l6 -24
92 35 c109 41 212 50 231 20 20 -30 -9 -125 -80 -267 -41 -82 -67 -146 -67
-165 0 -29 84 -243 107 -273 13 -18 62 -16 81 3 20 19 20 54 1 101 -14 34 -13
47 29 252 24 119 50 250 56 291 16 94 39 140 103 203 47 46 49 50 31 61 -67
39 -155 46 -220 17z"/>
<path d="M30371 5074 c-183 -49 -329 -212 -361 -405 -35 -205 74 -418 264
-517 97 -51 245 -67 351 -38 151 40 291 166 340 306 99 281 -69 593 -355 659
-63 15 -175 12 -239 -5z"/>
<path d="M32930 5079 c-25 -5 -77 -24 -116 -44 -178 -87 -285 -276 -271 -475
17 -250 210 -443 457 -457 156 -10 280 36 384 141 194 198 194 504 -1 699
-120 120 -284 169 -453 136z"/>
<path d="M37003 5075 c-311 -84 -462 -420 -319 -709 80 -160 252 -266 435
-266 146 0 255 45 356 145 271 270 143 733 -230 830 -72 18 -172 18 -242 0z"/>
<path d="M39543 5076 c-242 -59 -411 -306 -373 -548 39 -254 241 -428 495
-428 122 0 239 46 328 128 210 196 217 515 15 716 -124 123 -297 172 -465 132z"/>
<path d="M41639 4907 c-75 -32 -123 -71 -170 -141 -149 -221 -58 -537 179
-627 80 -30 197 -24 273 14 293 143 293 601 0 745 -80 39 -202 43 -282 9z"/>
<path d="M8686 4260 c-42 -37 -70 -87 -80 -142 -4 -23 5 -109 24 -235 40 -254
37 -243 66 -243 23 0 24 3 24 63 0 127 29 237 66 251 39 15 158 -88 267 -232
59 -77 72 -82 236 -82 154 0 171 6 171 59 0 39 -19 51 -86 58 -52 6 -69 15
-222 121 -91 63 -202 138 -247 168 -45 29 -91 63 -101 76 -17 22 -47 83 -71
147 l-9 24 -38 -33z"/>
<path d="M43199 4198 c-2 -18 -1 -58 2 -88 5 -49 6 -45 7 33 2 88 -3 115 -9
55z"/>
<path d="M43165 4111 c-3 -5 -2 -12 3 -15 5 -3 9 1 9 9 0 17 -3 19 -12 6z"/>
<path d="M43160 3946 c0 -2 7 -7 16 -10 8 -3 12 -2 9 4 -6 10 -25 14 -25 6z"/>
</g>
</svg>
